<svg width="90" height="90" fill="none" xmlns="http://www.w3.org/2000/svg"><path d="M15.847 38.881 3.57 52.365l12.684-8.992a22.887 22.887 0 0 1-.406-4.492zM27.367 63.51c-.8-.8-1.56-1.632-2.298-2.505L3.673 86.86l25.825-21.374a34.763 34.763 0 0 1-2.121-1.976h-.01zM43.595 73.886h.01L30.767 90l19.556-15.584-6.727-.53z" fill="#666564"/><path d="M75.67 51.392c11.29-11.29 13.68-37.53 7.245-43.966C76.48.991 50.25 3.372 38.95 14.673a7.183 7.183 0 0 0-.047.048L21.67 31.95c-5.77 5.77-.936 19.899 7.943 28.777 5.928 5.929 21.02 15.711 28.777 7.954l17.278-17.279v-.01z" fill="#F7C631"/><path d="M34.404 64.773c7.15 5.217 17.857 10.038 23.986 3.909l17.28-17.279v-.01c11.29-11.291 13.68-37.531 7.245-43.967-3.407-3.406-12.36-4.342-21.71-2.793l10.442.418a13.3 13.3 0 0 1 7.123 2.413 5.323 5.323 0 0 1 1.653 6.816 133.998 133.998 0 0 1-46.019 50.493z" fill="#E3AA24"/><path d="M45.602 70.653c4.745 1.457 9.447 1.37 12.789-1.971l17.278-17.279v-.01c5.06-5.06 8.331-13.12 9.823-21.056a149.908 149.908 0 0 1-39.89 40.316z" fill="#FAD541"/><path d="M25.921 37.414c19.58-13.119 31.515-22.428 49.54-28.87-20.03-1.238-38.775 12.282-49.54 28.87z" fill="#FFF599"/><path d="M64.077 4.234c-9.14 1.029-19.193 4.504-25.128 10.439l-.047.048L21.67 31.95c-5.77 5.77-.936 19.899 7.943 28.777 5.086 5.087 16.917 13.01 25.075 10.259l-6.696-.837a14.334 14.334 0 0 1-3.485-.89 35.83 35.83 0 0 1-21.95-26.164l-.23-1.122a11.383 11.383 0 0 1 2.362-9.508l5.964-7.25A62.38 62.38 0 0 1 64.077 4.234z" fill="#FCE26A"/><path d="m48.257 8.485-6.833 6.833c-5.77 5.77-.936 19.899 7.943 28.777 4.496 4.497 14.265 11.21 22.106 10.806-8.153 4.04-20.926-4.427-26.265-9.766-8.878-8.879-13.713-23.007-7.943-28.777l1.815-1.815c2.48-2.44 5.657-4.46 9.177-6.058z" fill="#FCE26A"/><path d="M53.623 0 39.344 14.278c-5.77 5.77-.935 19.899 7.943 28.778 5.914 5.913 20.947 15.663 28.72 8.009l-3.062 3.062c-7.757 7.758-22.849-2.025-28.777-7.953-8.878-8.879-13.712-23.007-7.943-28.777L53.456.167l.048-.049.119-.118z" fill="#CF8D1B"/></svg>